0
SECTION
2
HEADER
9
$INSUNITS
70
4
0
ENDSEC
0
SECTION
2
TABLES
0
TABLE
2
LTYPE
0
LTYPE
72
65
70
64
2
CONTINUOUS
3
______
73
0
40
0
0
ENDTAB
0
TABLE
2
LAYER
0
ENDTAB
0
ENDSEC
0
SECTION
2
ENTITIES
0
LINE
8
0
10
-5.4946278
20
10.7897666
11
-1.353523
21
26.2445798
0
LINE
8
0
10
3.5454564
20
29.0730071
11
12.3353816
21
26.7177537
0
LINE
8
0
10
-2.6662005
20
5.8907872
11
6.1237243
21
3.535534
0
LINE
8
0
10
26.5883442
20
-12.8183444
11
27.9848628
21
-7.606466
0
LINE
8
0
10
10.0982549
20
-12.540943
11
21.6893649
21
-15.6467716
0
LINE
8
0
10
7.2698276
20
-7.6419636
11
8.9521515
21
-1.3634454
0
LINE
8
0
10
23.8156641
20
38.653126
11
39.449754
21
34.4639842
0
LINE
8
0
10
17.234361
20
29.546181
11
18.9166848
21
35.8246987
0
LINE
8
0
10
52.3477037
20
46.333098
11
67.7845754
21
40.096197
0
LINE
8
0
10
44.1937654
20
36.8292612
11
47.1405419
21
44.1227889
0
LINE
8
0
10
71.0886014
20
42.5731377
11
84.6832184
21
36.2338638
0
LINE
8
0
10
86.6179763
20
30.9181595
11
86.1953581
21
30.0118519
0
LINE
8
0
10
69.0654898
20
40.6007626
11
69.7596753
21
42.0894482
0
LINE
8
0
10
64.9504412
20
-19.6638884
11
33.5390393
21
-5.0165111
0
LINE
8
0
10
86.6790476
20
28.6829258
11
101.1799723
21
21.9210337
0
LINE
8
0
10
101.6636618
20
20.5921076
11
101.6636618
21
20.5921076
0
LINE
8
0
10
106.947421
20
-56.8093938
11
129.3109298
21
-8.850694
0
LINE
8
0
10
116.9536319
20
1.3251202
11
127.3761717
21
-3.5349899
0
LINE
8
0
10
102.1473513
20
19.2631815
11
113.9293526
21
13.7691441
0
LINE
8
0
10
115.018874
20
6.6408244
11
115.8641105
21
8.4534398
0
LINE
8
0
10
57.8557619
20
-40.0496449
11
66.6886373
21
-25.3492717
0
LINE
8
0
10
59.2242787
20
-45.5384664
11
70.2067833
21
-52.1374209
0
LINE
8
0
10
70.770867
20
-52.5472516
11
88.6986153
21
-68.1316055
0
LINE
8
0
10
107.4640682
20
-61.0171484
11
111.6433833
21
-66.1781726
0
LINE
8
0
10
102.5034754
20
-78.7265623
11
111.052081
21
-71.804038
0
LINE
8
0
10
89.1829632
20
-68.6331624
11
96.87761
21
-78.13526
0
ARC
8
0
10
2.5101803
20
25.2093037
40
4
50
75.0000021
51
165.0000008
0
ARC
8
0
10
13.3706577
20
30.5814571
40
4
50
255.0000021
51
345.0000008
0
ARC
8
0
10
22.7803881
20
34.7894226
40
4
50
75.0000021
51
165.0000008
0
ARC
8
0
10
40.48503
20
38.3276875
40
4
50
255.0000021
51
338.0000006
0
ARC
8
0
10
50.8492773
20
42.6243626
40
4
50
68.0000006
51
158.0000006
0
ARC
8
0
10
82.9927452
20
32.6086326
40
4
50
334.9999983
51
64.9999983
0
ARC
8
0
10
112.2388794
20
10.1439129
40
4
50
334.9999983
51
64.9999983
0
ARC
8
0
10
118.6441051
20
4.9503513
40
4
50
154.9999983
51
244.9999983
0
ARC
8
0
10
125.6856986
20
-7.1602209
40
4
50
335.0000001
51
64.9999983
0
ARC
8
0
10
110.5726521
20
-58.4998669
40
4
50
155.0000001
51
218.999999
0
ARC
8
0
10
108.5347994
20
-68.6954541
40
4
50
309.0000002
51
38.999999
0
ARC
8
0
10
99.9861939
20
-75.6179784
40
4
50
219.0000002
51
308.999999
0
ARC
8
0
10
86.0743793
20
-71.1504439
40
4
50
38.999999
51
49.000002
0
ARC
8
0
10
68.146631
20
-55.56609
40
4
50
49.000002
51
58.9999987
0
ARC
8
0
10
61.2844311
20
-42.1097972
40
4
50
149.0000004
51
238.9999987
0
ARC
8
0
10
63.2599681
20
-23.2891194
40
4
50
329.0000004
51
64.9999983
0
ARC
8
0
10
31.8485661
20
-8.6417422
40
4
50
64.9999983
51
164.9999989
0
ARC
8
0
10
22.7246409
20
-11.7830682
40
4
50
255.0000021
51
344.9999989
0
ARC
8
0
10
11.133531
20
-8.6772397
40
4
50
165.0000021
51
255.0000008
0
ARC
8
0
10
5.0884482
20
-0.3281693
40
4
50
345.0000021
51
75.0000008
0
ARC
8
0
10
-1.6309244
20
9.7544905
40
4
50
165.0000021
51
255.0000008
0
ARC
8
0
10
-0.3875972
20
25.9857608
40
1
50
165.0000008
51
165.0000021
0
ARC
8
0
10
16.2684352
20
29.805
40
1
50
345.0000008
51
345.0000021
0
ARC
8
0
10
19.8826106
20
35.5658797
40
1
50
165.0000008
51
165.0000021
0
ARC
8
0
10
68.159182
20
41.0233809
40
1
50
248.0000006
51
334.9999983
0
ARC
8
0
10
70.6659831
20
41.6668299
40
1
50
64.9999983
51
154.9999983
0
ARC
8
0
10
87.1016659
20
29.5892336
40
1
50
154.9999983
51
244.9999983
0
ARC
8
0
10
100.757354
20
21.0147259
40
1
50
334.9999983
51
64.9999983
0
ARC
8
0
10
102.5699696
20
20.1694893
40
1
50
154.9999983
51
244.9999983
0
ARC
8
0
10
128.404622
20
-8.4280757
40
1
50
334.9999983
51
335.0000001
0
ARC
8
0
10
107.8537287
20
-57.2320121
40
1
50
154.9999983
51
155.0000001
0
ARC
8
0
10
110.4227606
20
-71.026892
40
1
50
308.999999
51
309.0000002
0
ARC
8
0
10
97.654756
20
-77.5059396
40
1
50
218.999999
51
219.0000002
0
ARC
8
0
10
58.7129292
20
-40.564683
40
1
50
148.9999987
51
149.0000004
0
ARC
8
0
10
65.83147
20
-24.8342336
40
1
50
328.9999987
51
329.0000004
0
ARC
8
0
10
28.9507886
20
-7.865285
40
1
50
164.9999989
51
165.0000021
0
ARC
8
0
10
25.6224184
20
-12.5595254
40
1
50
344.9999989
51
345.0000021
0
ARC
8
0
10
10.3570739
20
-11.5750172
40
1
50
255.0000008
51
255.0000021
0
ARC
8
0
10
5.8649053
20
2.5696082
40
1
50
75.0000008
51
75.0000021
0
ARC
8
0
10
-2.4073815
20
6.856713
40
1
50
255.0000008
51
255.0000021
0
ENDSEC
0
EOF