0
SECTION
2
HEADER
9
$INSUNITS
70
4
0
ENDSEC
0
SECTION
2
TABLES
0
TABLE
2
LTYPE
0
LTYPE
72
65
70
64
2
CONTINUOUS
3
______
73
0
40
0
0
ENDTAB
0
TABLE
2
LAYER
0
ENDTAB
0
ENDSEC
0
SECTION
2
ENTITIES
0
LINE
8
0
10
-5.4946278
20
10.7897666
11
-1.353523
21
26.2445798
0
LINE
8
0
10
3.5454564
20
29.0730071
11
12.3353816
21
26.7177537
0
LINE
8
0
10
-2.6662004
20
5.8907872
11
6.1237242
21
3.535534
0
LINE
8
0
10
26.5883442
20
-12.8183443
11
27.9848628
21
-7.6064661
0
LINE
8
0
10
10.0982549
20
-12.540943
11
21.6893649
21
-15.6467716
0
LINE
8
0
10
7.2698276
20
-7.6419636
11
8.9521515
21
-1.3634454
0
LINE
8
0
10
23.8156641
20
38.653126
11
39.449754
21
34.4639842
0
LINE
8
0
10
17.234361
20
29.546181
11
18.9166848
21
35.8246986
0
LINE
8
0
10
52.3477037
20
46.333098
11
68.6644401
21
39.7407086
0
LINE
8
0
10
44.1937654
20
36.8292612
11
47.1405419
21
44.1227889
0
LINE
8
0
10
70.1822936
20
42.995756
11
84.6832184
21
36.2338638
0
LINE
8
0
10
86.6179763
20
30.9181595
11
85.7727398
21
29.1055441
0
LINE
8
0
10
68.6644401
20
39.7407086
11
70.1822936
21
42.995756
0
LINE
8
0
10
64.9504412
20
-19.6638884
11
33.5390393
21
-5.0165111
0
LINE
8
0
10
85.7727398
20
29.1055441
11
102.0862801
21
21.4984154
0
LINE
8
0
10
102.0862801
20
21.4984154
11
101.2410435
21
19.6857997
0
LINE
8
0
10
106.947421
20
-56.8093937
11
129.3109297
21
-8.8506941
0
LINE
8
0
10
116.9536319
20
1.3251202
11
127.3761717
21
-3.5349899
0
LINE
8
0
10
101.2410435
20
19.6857997
11
113.9293526
21
13.7691441
0
LINE
8
0
10
115.018874
20
6.6408244
11
115.8641105
21
8.4534398
0
LINE
8
0
10
57.8557619
20
-40.0496448
11
66.6886372
21
-25.3492718
0
LINE
8
0
10
59.2242787
20
-45.5384664
11
70.2067833
21
-52.1374209
0
LINE
8
0
10
70.770867
20
-52.5472516
11
88.6986153
21
-68.1316055
0
LINE
8
0
10
107.4640682
20
-61.0171484
11
111.6433833
21
-66.1781726
0
LINE
8
0
10
102.5034754
20
-78.7265623
11
111.0520809
21
-71.804038
0
LINE
8
0
10
89.1829632
20
-68.6331624
11
96.87761
21
-78.1352599
0
ARC
8
0
10
2.5101803
20
25.2093037
40
4
50
75.0000021
51
165.0000021
0
ARC
8
0
10
13.3706577
20
30.5814571
40
4
50
255.0000021
51
345.0000021
0
ARC
8
0
10
22.7803881
20
34.7894226
40
4
50
75.0000021
51
165.0000021
0
ARC
8
0
10
40.48503
20
38.3276875
40
4
50
255.0000021
51
338.0000006
0
ARC
8
0
10
50.8492773
20
42.6243626
40
4
50
68.0000006
51
158.0000006
0
ARC
8
0
10
82.9927452
20
32.6086326
40
4
50
334.9999983
51
64.9999983
0
ARC
8
0
10
112.2388794
20
10.1439129
40
4
50
334.9999983
51
64.9999983
0
ARC
8
0
10
118.6441051
20
4.9503513
40
4
50
154.9999983
51
244.9999983
0
ARC
8
0
10
125.6856986
20
-7.1602209
40
4
50
334.9999983
51
64.9999983
0
ARC
8
0
10
110.5726521
20
-58.4998669
40
4
50
154.9999983
51
218.999999
0
ARC
8
0
10
108.5347994
20
-68.6954541
40
4
50
308.999999
51
38.999999
0
ARC
8
0
10
99.9861939
20
-75.6179784
40
4
50
218.999999
51
308.999999
0
ARC
8
0
10
86.0743793
20
-71.1504439
40
4
50
38.999999
51
49.000002
0
ARC
8
0
10
68.146631
20
-55.56609
40
4
50
49.000002
51
58.9999987
0
ARC
8
0
10
61.2844311
20
-42.1097972
40
4
50
148.9999987
51
238.9999987
0
ARC
8
0
10
63.2599681
20
-23.2891194
40
4
50
328.9999987
51
64.9999983
0
ARC
8
0
10
31.8485661
20
-8.6417422
40
4
50
64.9999983
51
165.0000021
0
ARC
8
0
10
22.7246409
20
-11.7830682
40
4
50
255.0000021
51
345.0000021
0
ARC
8
0
10
11.133531
20
-8.6772397
40
4
50
165.0000021
51
255.0000021
0
ARC
8
0
10
5.0884482
20
-0.3281693
40
4
50
345.0000021
51
75.0000021
0
ARC
8
0
10
-1.6309244
20
9.7544905
40
4
50
165.0000021
51
255.0000021
0
ENDSEC
0
EOF